<mxfile host="Electron" agent="Mozilla/5.0 (Windows NT 10.0; Win64; x64) AppleWebKit/537.36 (KHTML, like Gecko) draw.io/24.7.17 Chrome/128.0.6613.36 Electron/32.0.1 Safari/537.36" version="24.7.17">
  <diagram id="C5RBs43oDa-KdzZeNtuy" name="Page-1">
    <mxGraphModel dx="1464" dy="1104" grid="1" gridSize="10" guides="1" tooltips="1" connect="1" arrows="1" fold="1" page="1" pageScale="1" pageWidth="827" pageHeight="1169" math="0" shadow="0">
      <root>
        <mxCell id="WIyWlLk6GJQsqaUBKTNV-0" />
        <mxCell id="WIyWlLk6GJQsqaUBKTNV-1" parent="WIyWlLk6GJQsqaUBKTNV-0" />
        <mxCell id="xfNOZjnpDUWlMvhL13vc-49" value="&lt;b&gt;Opprett Bil&lt;/b&gt;&lt;div&gt;String bilnumer&lt;/div&gt;&lt;div&gt;String modell&lt;/div&gt;&lt;div&gt;String farge&lt;/div&gt;" style="whiteSpace=wrap;html=1;" vertex="1" parent="WIyWlLk6GJQsqaUBKTNV-1">
          <mxGeometry x="170" y="180" width="120" height="60" as="geometry" />
        </mxCell>
        <mxCell id="xfNOZjnpDUWlMvhL13vc-50" value="&lt;b&gt;PHus&lt;/b&gt;&lt;div&gt;String maks_plasser&lt;/div&gt;&lt;div&gt;Float rate&lt;/div&gt;&lt;div&gt;Float rate_annet&lt;/div&gt;" style="whiteSpace=wrap;html=1;" vertex="1" parent="WIyWlLk6GJQsqaUBKTNV-1">
          <mxGeometry x="354" y="180" width="120" height="60" as="geometry" />
        </mxCell>
        <mxCell id="xfNOZjnpDUWlMvhL13vc-67" value="" style="edgeStyle=orthogonalEdgeStyle;rounded=0;orthogonalLoop=1;jettySize=auto;html=1;" edge="1" parent="WIyWlLk6GJQsqaUBKTNV-1" source="xfNOZjnpDUWlMvhL13vc-51" target="xfNOZjnpDUWlMvhL13vc-49">
          <mxGeometry relative="1" as="geometry" />
        </mxCell>
        <mxCell id="xfNOZjnpDUWlMvhL13vc-51" value="&lt;b&gt;Opprett Annet&lt;/b&gt;&lt;div&gt;super(Bil)&lt;/div&gt;&lt;div&gt;String type&lt;/div&gt;" style="whiteSpace=wrap;html=1;" vertex="1" parent="WIyWlLk6GJQsqaUBKTNV-1">
          <mxGeometry x="170" y="270" width="120" height="60" as="geometry" />
        </mxCell>
        <mxCell id="xfNOZjnpDUWlMvhL13vc-56" style="edgeStyle=orthogonalEdgeStyle;rounded=0;orthogonalLoop=1;jettySize=auto;html=1;exitX=0.5;exitY=1;exitDx=0;exitDy=0;entryX=0.5;entryY=0;entryDx=0;entryDy=0;" edge="1" parent="WIyWlLk6GJQsqaUBKTNV-1" source="xfNOZjnpDUWlMvhL13vc-52" target="xfNOZjnpDUWlMvhL13vc-55">
          <mxGeometry relative="1" as="geometry" />
        </mxCell>
        <mxCell id="xfNOZjnpDUWlMvhL13vc-52" value="PHus.innkjøring()" style="whiteSpace=wrap;html=1;" vertex="1" parent="WIyWlLk6GJQsqaUBKTNV-1">
          <mxGeometry x="354" y="310" width="120" height="60" as="geometry" />
        </mxCell>
        <mxCell id="xfNOZjnpDUWlMvhL13vc-59" value="" style="edgeStyle=orthogonalEdgeStyle;rounded=0;orthogonalLoop=1;jettySize=auto;html=1;" edge="1" parent="WIyWlLk6GJQsqaUBKTNV-1" source="xfNOZjnpDUWlMvhL13vc-55" target="xfNOZjnpDUWlMvhL13vc-58">
          <mxGeometry relative="1" as="geometry" />
        </mxCell>
        <mxCell id="xfNOZjnpDUWlMvhL13vc-60" value="&quot;Fullt hus&quot;" style="edgeLabel;html=1;align=center;verticalAlign=middle;resizable=0;points=[];" vertex="1" connectable="0" parent="xfNOZjnpDUWlMvhL13vc-59">
          <mxGeometry x="-0.2" y="3" relative="1" as="geometry">
            <mxPoint as="offset" />
          </mxGeometry>
        </mxCell>
        <mxCell id="xfNOZjnpDUWlMvhL13vc-61" value="Ja" style="edgeLabel;html=1;align=center;verticalAlign=middle;resizable=0;points=[];" vertex="1" connectable="0" parent="xfNOZjnpDUWlMvhL13vc-59">
          <mxGeometry x="-0.7065" y="2" relative="1" as="geometry">
            <mxPoint as="offset" />
          </mxGeometry>
        </mxCell>
        <mxCell id="xfNOZjnpDUWlMvhL13vc-63" value="" style="edgeStyle=orthogonalEdgeStyle;rounded=0;orthogonalLoop=1;jettySize=auto;html=1;" edge="1" parent="WIyWlLk6GJQsqaUBKTNV-1" source="xfNOZjnpDUWlMvhL13vc-55" target="xfNOZjnpDUWlMvhL13vc-62">
          <mxGeometry relative="1" as="geometry" />
        </mxCell>
        <mxCell id="xfNOZjnpDUWlMvhL13vc-64" value="Nei" style="edgeLabel;html=1;align=center;verticalAlign=middle;resizable=0;points=[];" vertex="1" connectable="0" parent="xfNOZjnpDUWlMvhL13vc-63">
          <mxGeometry x="-0.4" y="-2" relative="1" as="geometry">
            <mxPoint as="offset" />
          </mxGeometry>
        </mxCell>
        <mxCell id="xfNOZjnpDUWlMvhL13vc-66" value="plasser += 1" style="edgeLabel;html=1;align=center;verticalAlign=middle;resizable=0;points=[];" vertex="1" connectable="0" parent="xfNOZjnpDUWlMvhL13vc-63">
          <mxGeometry x="0.274" y="-1" relative="1" as="geometry">
            <mxPoint as="offset" />
          </mxGeometry>
        </mxCell>
        <mxCell id="xfNOZjnpDUWlMvhL13vc-55" value="plasser &amp;gt;= maks_plasser" style="rhombus;whiteSpace=wrap;html=1;" vertex="1" parent="WIyWlLk6GJQsqaUBKTNV-1">
          <mxGeometry x="374" y="410" width="80" height="80" as="geometry" />
        </mxCell>
        <mxCell id="xfNOZjnpDUWlMvhL13vc-58" value="Return" style="whiteSpace=wrap;html=1;" vertex="1" parent="WIyWlLk6GJQsqaUBKTNV-1">
          <mxGeometry x="90" y="420" width="120" height="60" as="geometry" />
        </mxCell>
        <mxCell id="xfNOZjnpDUWlMvhL13vc-62" value="Legg til i ordbok biler" style="whiteSpace=wrap;html=1;" vertex="1" parent="WIyWlLk6GJQsqaUBKTNV-1">
          <mxGeometry x="620" y="420" width="120" height="60" as="geometry" />
        </mxCell>
        <mxCell id="xfNOZjnpDUWlMvhL13vc-70" style="edgeStyle=orthogonalEdgeStyle;rounded=0;orthogonalLoop=1;jettySize=auto;html=1;entryX=0.5;entryY=0;entryDx=0;entryDy=0;" edge="1" parent="WIyWlLk6GJQsqaUBKTNV-1" source="xfNOZjnpDUWlMvhL13vc-68" target="xfNOZjnpDUWlMvhL13vc-69">
          <mxGeometry relative="1" as="geometry" />
        </mxCell>
        <mxCell id="xfNOZjnpDUWlMvhL13vc-68" value="PHus.utkjøring()" style="whiteSpace=wrap;html=1;" vertex="1" parent="WIyWlLk6GJQsqaUBKTNV-1">
          <mxGeometry x="110" y="570" width="120" height="60" as="geometry" />
        </mxCell>
        <mxCell id="xfNOZjnpDUWlMvhL13vc-73" style="edgeStyle=orthogonalEdgeStyle;rounded=0;orthogonalLoop=1;jettySize=auto;html=1;entryX=0;entryY=0.5;entryDx=0;entryDy=0;" edge="1" parent="WIyWlLk6GJQsqaUBKTNV-1" source="xfNOZjnpDUWlMvhL13vc-69" target="xfNOZjnpDUWlMvhL13vc-71">
          <mxGeometry relative="1" as="geometry" />
        </mxCell>
        <mxCell id="xfNOZjnpDUWlMvhL13vc-75" value="Ja" style="edgeLabel;html=1;align=center;verticalAlign=middle;resizable=0;points=[];" vertex="1" connectable="0" parent="xfNOZjnpDUWlMvhL13vc-73">
          <mxGeometry x="-0.28" relative="1" as="geometry">
            <mxPoint as="offset" />
          </mxGeometry>
        </mxCell>
        <mxCell id="xfNOZjnpDUWlMvhL13vc-76" value="Rate = 1.5" style="edgeLabel;html=1;align=center;verticalAlign=middle;resizable=0;points=[];" vertex="1" connectable="0" parent="xfNOZjnpDUWlMvhL13vc-73">
          <mxGeometry x="0.49" y="2" relative="1" as="geometry">
            <mxPoint as="offset" />
          </mxGeometry>
        </mxCell>
        <mxCell id="xfNOZjnpDUWlMvhL13vc-74" style="edgeStyle=orthogonalEdgeStyle;rounded=0;orthogonalLoop=1;jettySize=auto;html=1;entryX=1;entryY=0.5;entryDx=0;entryDy=0;" edge="1" parent="WIyWlLk6GJQsqaUBKTNV-1" source="xfNOZjnpDUWlMvhL13vc-69" target="xfNOZjnpDUWlMvhL13vc-71">
          <mxGeometry relative="1" as="geometry" />
        </mxCell>
        <mxCell id="xfNOZjnpDUWlMvhL13vc-77" value="Nei" style="edgeLabel;html=1;align=center;verticalAlign=middle;resizable=0;points=[];" vertex="1" connectable="0" parent="xfNOZjnpDUWlMvhL13vc-74">
          <mxGeometry x="-0.2917" y="1" relative="1" as="geometry">
            <mxPoint as="offset" />
          </mxGeometry>
        </mxCell>
        <mxCell id="xfNOZjnpDUWlMvhL13vc-78" value="Rate = 3" style="edgeLabel;html=1;align=center;verticalAlign=middle;resizable=0;points=[];" vertex="1" connectable="0" parent="xfNOZjnpDUWlMvhL13vc-74">
          <mxGeometry x="0.475" y="1" relative="1" as="geometry">
            <mxPoint as="offset" />
          </mxGeometry>
        </mxCell>
        <mxCell id="xfNOZjnpDUWlMvhL13vc-69" value="Klassens navn er &quot;Bil&quot;?" style="rhombus;whiteSpace=wrap;html=1;" vertex="1" parent="WIyWlLk6GJQsqaUBKTNV-1">
          <mxGeometry x="130" y="670" width="80" height="80" as="geometry" />
        </mxCell>
        <mxCell id="xfNOZjnpDUWlMvhL13vc-71" value="tid i sekund // 60 * rate" style="whiteSpace=wrap;html=1;" vertex="1" parent="WIyWlLk6GJQsqaUBKTNV-1">
          <mxGeometry x="110" y="860" width="120" height="60" as="geometry" />
        </mxCell>
        <mxCell id="xfNOZjnpDUWlMvhL13vc-84" style="edgeStyle=orthogonalEdgeStyle;rounded=0;orthogonalLoop=1;jettySize=auto;html=1;exitX=0.5;exitY=1;exitDx=0;exitDy=0;entryX=0.5;entryY=0;entryDx=0;entryDy=0;" edge="1" parent="WIyWlLk6GJQsqaUBKTNV-1" source="xfNOZjnpDUWlMvhL13vc-79" target="xfNOZjnpDUWlMvhL13vc-83">
          <mxGeometry relative="1" as="geometry" />
        </mxCell>
        <mxCell id="xfNOZjnpDUWlMvhL13vc-94" value="a=0" style="edgeLabel;html=1;align=center;verticalAlign=middle;resizable=0;points=[];" vertex="1" connectable="0" parent="xfNOZjnpDUWlMvhL13vc-84">
          <mxGeometry x="-0.2" relative="1" as="geometry">
            <mxPoint as="offset" />
          </mxGeometry>
        </mxCell>
        <mxCell id="xfNOZjnpDUWlMvhL13vc-79" value="PHus.vis_biler_med_farge()" style="whiteSpace=wrap;html=1;" vertex="1" parent="WIyWlLk6GJQsqaUBKTNV-1">
          <mxGeometry x="490" y="570" width="160" height="60" as="geometry" />
        </mxCell>
        <mxCell id="xfNOZjnpDUWlMvhL13vc-86" style="edgeStyle=orthogonalEdgeStyle;rounded=0;orthogonalLoop=1;jettySize=auto;html=1;exitX=1;exitY=0.5;exitDx=0;exitDy=0;entryX=1;entryY=0.5;entryDx=0;entryDy=0;" edge="1" parent="WIyWlLk6GJQsqaUBKTNV-1" source="xfNOZjnpDUWlMvhL13vc-81" target="xfNOZjnpDUWlMvhL13vc-83">
          <mxGeometry relative="1" as="geometry">
            <Array as="points">
              <mxPoint x="680" y="790" />
              <mxPoint x="680" y="690" />
            </Array>
          </mxGeometry>
        </mxCell>
        <mxCell id="xfNOZjnpDUWlMvhL13vc-87" value="Nei" style="edgeLabel;html=1;align=center;verticalAlign=middle;resizable=0;points=[];" vertex="1" connectable="0" parent="xfNOZjnpDUWlMvhL13vc-86">
          <mxGeometry x="0.1048" y="-1" relative="1" as="geometry">
            <mxPoint as="offset" />
          </mxGeometry>
        </mxCell>
        <mxCell id="xfNOZjnpDUWlMvhL13vc-90" style="edgeStyle=orthogonalEdgeStyle;rounded=0;orthogonalLoop=1;jettySize=auto;html=1;exitX=0.5;exitY=1;exitDx=0;exitDy=0;entryX=0.5;entryY=0;entryDx=0;entryDy=0;" edge="1" parent="WIyWlLk6GJQsqaUBKTNV-1" source="xfNOZjnpDUWlMvhL13vc-81" target="xfNOZjnpDUWlMvhL13vc-88">
          <mxGeometry relative="1" as="geometry" />
        </mxCell>
        <mxCell id="xfNOZjnpDUWlMvhL13vc-92" value="Ja" style="edgeLabel;html=1;align=center;verticalAlign=middle;resizable=0;points=[];" vertex="1" connectable="0" parent="xfNOZjnpDUWlMvhL13vc-90">
          <mxGeometry x="-0.15" relative="1" as="geometry">
            <mxPoint as="offset" />
          </mxGeometry>
        </mxCell>
        <mxCell id="xfNOZjnpDUWlMvhL13vc-93" value="a+=1" style="edgeLabel;html=1;align=center;verticalAlign=middle;resizable=0;points=[];" vertex="1" connectable="0" parent="xfNOZjnpDUWlMvhL13vc-90">
          <mxGeometry x="0.275" relative="1" as="geometry">
            <mxPoint as="offset" />
          </mxGeometry>
        </mxCell>
        <mxCell id="xfNOZjnpDUWlMvhL13vc-81" value="Klassens navn er &quot;Bil&quot;?" style="rhombus;whiteSpace=wrap;html=1;" vertex="1" parent="WIyWlLk6GJQsqaUBKTNV-1">
          <mxGeometry x="530" y="750" width="80" height="80" as="geometry" />
        </mxCell>
        <mxCell id="xfNOZjnpDUWlMvhL13vc-85" style="edgeStyle=orthogonalEdgeStyle;rounded=0;orthogonalLoop=1;jettySize=auto;html=1;exitX=0.5;exitY=1;exitDx=0;exitDy=0;entryX=0.5;entryY=0;entryDx=0;entryDy=0;" edge="1" parent="WIyWlLk6GJQsqaUBKTNV-1" source="xfNOZjnpDUWlMvhL13vc-83" target="xfNOZjnpDUWlMvhL13vc-81">
          <mxGeometry relative="1" as="geometry" />
        </mxCell>
        <mxCell id="xfNOZjnpDUWlMvhL13vc-97" style="edgeStyle=orthogonalEdgeStyle;rounded=0;orthogonalLoop=1;jettySize=auto;html=1;exitX=0;exitY=0.25;exitDx=0;exitDy=0;entryX=1;entryY=0.5;entryDx=0;entryDy=0;" edge="1" parent="WIyWlLk6GJQsqaUBKTNV-1" source="xfNOZjnpDUWlMvhL13vc-83" target="xfNOZjnpDUWlMvhL13vc-96">
          <mxGeometry relative="1" as="geometry" />
        </mxCell>
        <mxCell id="xfNOZjnpDUWlMvhL13vc-98" value="Ferdig" style="edgeLabel;html=1;align=center;verticalAlign=middle;resizable=0;points=[];" vertex="1" connectable="0" parent="xfNOZjnpDUWlMvhL13vc-97">
          <mxGeometry x="-0.3053" y="1" relative="1" as="geometry">
            <mxPoint as="offset" />
          </mxGeometry>
        </mxCell>
        <mxCell id="xfNOZjnpDUWlMvhL13vc-83" value="For bil i biler" style="whiteSpace=wrap;html=1;" vertex="1" parent="WIyWlLk6GJQsqaUBKTNV-1">
          <mxGeometry x="510" y="660" width="120" height="60" as="geometry" />
        </mxCell>
        <mxCell id="xfNOZjnpDUWlMvhL13vc-91" style="edgeStyle=orthogonalEdgeStyle;rounded=0;orthogonalLoop=1;jettySize=auto;html=1;exitX=0;exitY=0.5;exitDx=0;exitDy=0;entryX=0;entryY=0.5;entryDx=0;entryDy=0;" edge="1" parent="WIyWlLk6GJQsqaUBKTNV-1" source="xfNOZjnpDUWlMvhL13vc-88" target="xfNOZjnpDUWlMvhL13vc-83">
          <mxGeometry relative="1" as="geometry" />
        </mxCell>
        <mxCell id="xfNOZjnpDUWlMvhL13vc-88" value="Print bilnummer og modell" style="whiteSpace=wrap;html=1;" vertex="1" parent="WIyWlLk6GJQsqaUBKTNV-1">
          <mxGeometry x="510" y="890" width="120" height="60" as="geometry" />
        </mxCell>
        <mxCell id="xfNOZjnpDUWlMvhL13vc-100" value="" style="edgeStyle=orthogonalEdgeStyle;rounded=0;orthogonalLoop=1;jettySize=auto;html=1;" edge="1" parent="WIyWlLk6GJQsqaUBKTNV-1" source="xfNOZjnpDUWlMvhL13vc-96" target="xfNOZjnpDUWlMvhL13vc-99">
          <mxGeometry relative="1" as="geometry" />
        </mxCell>
        <mxCell id="xfNOZjnpDUWlMvhL13vc-101" value="Ja" style="edgeLabel;html=1;align=center;verticalAlign=middle;resizable=0;points=[];" vertex="1" connectable="0" parent="xfNOZjnpDUWlMvhL13vc-100">
          <mxGeometry x="-0.1333" y="1" relative="1" as="geometry">
            <mxPoint as="offset" />
          </mxGeometry>
        </mxCell>
        <mxCell id="xfNOZjnpDUWlMvhL13vc-103" style="edgeStyle=orthogonalEdgeStyle;rounded=0;orthogonalLoop=1;jettySize=auto;html=1;exitX=0.5;exitY=0;exitDx=0;exitDy=0;entryX=0.5;entryY=1;entryDx=0;entryDy=0;" edge="1" parent="WIyWlLk6GJQsqaUBKTNV-1" source="xfNOZjnpDUWlMvhL13vc-96" target="xfNOZjnpDUWlMvhL13vc-102">
          <mxGeometry relative="1" as="geometry" />
        </mxCell>
        <mxCell id="xfNOZjnpDUWlMvhL13vc-104" value="Nei" style="edgeLabel;html=1;align=center;verticalAlign=middle;resizable=0;points=[];" vertex="1" connectable="0" parent="xfNOZjnpDUWlMvhL13vc-103">
          <mxGeometry relative="1" as="geometry">
            <mxPoint as="offset" />
          </mxGeometry>
        </mxCell>
        <mxCell id="xfNOZjnpDUWlMvhL13vc-96" value="a == 0" style="rhombus;whiteSpace=wrap;html=1;" vertex="1" parent="WIyWlLk6GJQsqaUBKTNV-1">
          <mxGeometry x="350" y="690" width="80" height="80" as="geometry" />
        </mxCell>
        <mxCell id="xfNOZjnpDUWlMvhL13vc-99" value="&quot;Ingen biler funnet med farge&quot;" style="whiteSpace=wrap;html=1;" vertex="1" parent="WIyWlLk6GJQsqaUBKTNV-1">
          <mxGeometry x="330" y="820" width="120" height="60" as="geometry" />
        </mxCell>
        <mxCell id="xfNOZjnpDUWlMvhL13vc-102" value="Print biler funnet med farge" style="whiteSpace=wrap;html=1;" vertex="1" parent="WIyWlLk6GJQsqaUBKTNV-1">
          <mxGeometry x="330" y="590" width="120" height="60" as="geometry" />
        </mxCell>
      </root>
    </mxGraphModel>
  </diagram>
</mxfile>
